<svg width="24" height="24" viewBox="0 0 24 24" fill="none" xmlns="http://www.w3.org/2000/svg">
<path fill-rule="evenodd" clip-rule="evenodd" d="M13 20L12 20C7.58172 20 4 16.4183 4 12C4 7.58172 7.58172 4 12 4L13 4L13 6L12 6C8.68629 6 6 8.68629 6 12C6 15.3137 8.68629 18 12 18L13 18L13 20Z" fill="#161B1F"/>
<path fill-rule="evenodd" clip-rule="evenodd" d="M15.7072 7.29303L15 6.58594L13.5858 8.00017L14.293 8.70727L16.5858 11L12 11.0001L11 11.0001L11 13.0001L12 13.0001L16.5859 13L14.2929 15.2931L13.5858 16.0002L15.0001 17.4144L15.7072 16.7072L19.7072 12.7071C20.0977 12.3166 20.0977 11.6834 19.7072 11.2929L15.7072 7.29303Z" fill="#161B1F"/>
</svg>
